PathFileType	4	(X/Y/Z)	C:/Users/opensim2020/Desktop/walking_exp_matlab/subject06_walking12_straigt_03.trc																																																																																																																																														
DataRate	CameraRate	NumFrames	NumMarkers	Units	OrigDataRate	OrigDataStartFrame	OrigNumFrames																																																																																																																																										
100	100	7	48	mm	100	2072	184																																																																																																																																										
Frame#	Time	LFHD			RFHD			LBHD			RBHD			C7			T10			CLAV			STRN			RBAK			LSHO			LUPA			LELB			LFRM			LWRA			LWRB			LFIN			RSHO			RUPA			RELB			RFRM			RWRA			RWRB			RFIN			LASI			RASI			LPSI			RPSI			LTHI			LKNE			LTIB			LANK			LHEE			LTOE			RTHI			RKNE			RTIB			RANK			RHEE			RTOE			*39			*40			*41			*42			*43			*44			*45			*46			*47		
		X1	Y1	Z1	X2	Y2	Z2	X3	Y3	Z3	X4	Y4	Z4	X5	Y5	Z5	X6	Y6	Z6	X7	Y7	Z7	X8	Y8	Z8	X9	Y9	Z9	X10	Y10	Z10	X11	Y11	Z11	X12	Y12	Z12	X13	Y13	Z13	X14	Y14	Z14	X15	Y15	Z15	X16	Y16	Z16	X17	Y17	Z17	X18	Y18	Z18	X19	Y19	Z19	X20	Y20	Z20	X21	Y21	Z21	X22	Y22	Z22	X23	Y23	Z23	X24	Y24	Z24	X25	Y25	Z25	X26	Y26	Z26	X27	Y27	Z27	X28	Y28	Z28	X29	Y29	Z29	X30	Y30	Z30	X31	Y31	Z31	X32	Y32	Z32	X33	Y33	Z33	X34	Y34	Z34	X35	Y35	Z35	X36	Y36	Z36	X37	Y37	Z37	X38	Y38	Z38	X39	Y39	Z39	X40	Y40	Z40	X41	Y41	Z41	X42	Y42	Z42	X43	Y43	Z43	X44	Y44	Z44	X45	Y45	Z45	X46	Y46	Z46	X47	Y47	Z47	X48	Y48	Z48
																																																																																																																																																	
1	0	-1054.43835	1660.74683	741.79089	-925.61591	1645.44189	757.53046	-1072.32947	1618.75171	879.50751	-943.66394	1608.90698	892.09491	-1018.38892	1454.83606	898.05609	-1015.06042	1125.58972	940.56946	-1011.56555	1373.46143	790.62415	-1020.3811	1198.98022	753.77057	-945.24579	1284.7594	979.39288	-1174.0387	1411.70459	833.73431	-1261.51709	1219.55164	796.99957	-1285.16492	1111.54932	771.14746	-1312.91516	980.45605	700.27582	-1265.27319	881.09235	619.77838	-1318.5271	866.61871	664.43213	-1316.65381	803.24701	600.5246	-852.8634	1406.25513	845.36475	-769.12054	1214.13049	909.17249	-757.09729	1091.69055	915.50848	-739.06183	971.28925	918.55151	-765.5849	824.21454	879.37024	-729.91107	833.7287	935.33685	-725.27155	753.22803	910.58246	-1115.44531	964.66101	758.08032	-895.15057	970.92847	770.77405	-1092.54053	994.29736	917.07117	-925.25995	991.36981	919.28625	-1174.63818	652.72748	847.99817	-1156.31653	489.05856	868.80591	-1146.21655	237.2338	928.62067	-1098.1322	65.12796	941.09766	-1050.21326	52.36975	977.7442	-1109.69104	32.79096	797.72626	-830.14856	645.31543	749.81787	-847.99243	528.82874	700.52045	-860.27112	299.11008	821.27783	-909.06805	137.76556	910.3717	-958.2547	128.42761	952.45935	-897.15411	49.33898	785.99237	-1006.21619	1706.26233	845.2998	NaN	NaN	NaN	NaN	NaN	NaN	NaN	NaN	NaN	NaN	NaN	NaN	NaN	NaN	NaN	NaN	NaN	NaN	NaN	NaN	NaN	NaN	NaN	NaN
2	0.01	-1055.62378	1660.17798	733.1748	-926.68768	1644.80066	748.91705	-1073.36401	1618.33936	870.8573	-944.6817	1608.35229	883.39587	-1019.64294	1454.46582	889.57428	-1016.40479	1125.24268	932.39728	-1012.80304	1372.91907	782.29443	-1021.73035	1198.4054	745.65997	-946.85071	1284.44238	971.13031	-1175.33691	1411.50476	825.24573	-1262.70654	1219.88135	786.6134	-1286.18994	1112.23645	759.09601	-1313.64148	982.84692	684.77527	-1266.02332	886.41772	600.82446	-1318.51318	869.99445	645.64264	-1316.80103	808.50873	579.63977	-854.17255	1405.65698	837.04144	-770.69061	1214.02954	902.36218	-758.64709	1091.67773	909.93097	-740.64307	971.26831	914.13318	-766.70068	824.05066	875.92413	-731.55457	833.94684	932.25256	-726.96661	753.12421	908.53967	-1116.49341	963.6817	750.01282	-896.25714	970.67804	762.5907	-1093.54333	993.79803	908.83789	-926.24542	991.34436	911.06561	-1174.93787	652.01874	841.82513	-1156.51123	488.60403	864.14142	-1146.16846	237.34314	926.46265	-1098.00159	65.34394	940.77924	-1050.01208	52.74294	977.612	-1109.80139	32.7747	797.67578	-830.35034	646.45642	739.91107	-849.29199	530.05347	690.22815	-861.43604	295.00281	802.3703	-909.93597	128.79579	882.54047	-959.40131	117.14446	923.70337	-896.57104	47.1003	753.69794	-1007.17657	1705.76074	836.52289	NaN	NaN	NaN	NaN	NaN	NaN	NaN	NaN	NaN	NaN	NaN	NaN	NaN	NaN	NaN	NaN	NaN	NaN	NaN	NaN	NaN	NaN	NaN	NaN
3	0.02	-1056.42822	1659.453	724.40167	-927.78729	1643.98059	740.06183	-1074.66699	1617.63428	862.31293	-945.54047	1607.64233	874.65662	-1020.815	1453.9021	881.08423	-1017.61902	1124.8103	924.23322	-1013.97314	1372.18164	773.91589	-1023.11609	1197.67249	737.48828	-948.27167	1283.9397	962.87268	-1176.32458	1410.98486	816.6557	-1263.66699	1219.93921	776.36481	-1287.08875	1112.62256	747.32886	-1314.27759	985.06116	669.78186	-1266.6543	891.88147	582.08856	-1318.22803	873.30695	627.28564	-1316.54285	813.86792	559.28998	-855.2843	1404.87769	828.57471	-772.19257	1213.80725	895.60632	-760.13629	1091.48779	904.06476	-742.15393	971.14844	909.54999	-768.01135	823.51233	872.5592	-732.97607	834.00568	928.91351	-728.6507	752.88354	906.08411	-1117.3147	962.60065	741.79791	-897.31079	970.42468	754.33478	-1094.43579	993.25494	900.57739	-927.14966	991.19965	902.91632	-1175.23706	651.27789	835.63263	-1156.70056	488.09021	859.31732	-1146.12256	237.42242	924.30029	-1097.8783	65.59809	940.42651	-1049.8656	53.14294	977.3866	-1109.78564	32.68008	797.72815	-830.86017	646.9317	730.26788	-849.96777	531.05823	680.19208	-862.32697	290.76019	783.3894	-910.29279	120.09246	854.11816	-960.10754	106.26895	894.28986	-895.66174	45.06883	721.40076	-1007.95715	1705.07776	827.76624	NaN	NaN	NaN	NaN	NaN	NaN	NaN	NaN	NaN	NaN	NaN	NaN	NaN	NaN	NaN	NaN	NaN	NaN	NaN	NaN	NaN	NaN	NaN	NaN
4	0.03	-1057.32263	1658.69434	715.86365	-928.56354	1642.9386	731.24725	-1075.42175	1616.9635	853.68115	-946.35938	1606.73499	865.77722	-1021.86945	1453.22913	872.54333	-1018.61322	1123.99402	915.79224	-1015.12231	1371.33423	765.49017	-1024.41785	1196.75195	729.37439	-949.5849	1283.27917	954.39935	-1177.38501	1410.49426	808.16956	-1264.62769	1219.80151	766.48761	-1287.75781	1112.67871	735.83752	-1314.62256	987.04584	655.10675	-1267.14368	897.43652	563.79095	-1317.63733	876.57574	609.32318	-1316.11792	819.47968	539.42456	-856.32013	1403.95154	819.84747	-773.51642	1213.4325	888.49805	-761.53638	1091.18066	897.99066	-743.61591	970.83435	904.58124	-769.63019	822.69183	869.30219	-734.67065	833.82507	925.4389	-730.16998	752.51599	903.32587	-1118.00403	961.44952	733.47754	-898.0058	969.74701	746.24768	-1095.3645	992.63428	892.23938	-928.0119	990.87744	894.75818	-1175.81531	650.61084	829.66833	-1156.77332	487.60083	854.52222	-1145.98315	237.4646	921.85297	-1097.74988	65.80235	939.99683	-1049.50256	53.77603	977.43451	-1109.92493	32.78497	797.42554	-830.95544	647.35327	720.96863	-850.88336	531.27551	670.45416	-862.80914	286.4296	764.25067	-910.19049	111.8226	825.2674	-960.14063	95.99568	864.52686	-894.57104	43.39342	689.05182	-1008.62231	1704.18628	819.03375	NaN	NaN	NaN	NaN	NaN	NaN	NaN	NaN	NaN	NaN	NaN	NaN	NaN	NaN	NaN	NaN	NaN	NaN	NaN	NaN	NaN	NaN	NaN	NaN
5	0.04	-1058.42981	1658.04187	707.34723	-929.38568	1641.93188	722.35333	-1076.06909	1616.15173	845.08618	-946.90808	1605.63269	856.97217	-1022.78278	1452.47278	863.97296	-1019.47461	1123.2467	907.4585	-1016.36908	1370.38379	756.86664	-1025.55737	1195.76489	721.06268	-950.64764	1282.50635	945.90167	-1178.4209	1409.79053	799.56848	-1265.31653	1219.43115	756.58167	-1288.38647	1112.43835	724.71222	-1314.89917	988.96362	640.89612	-1267.52954	903.10956	545.9624	-1316.76965	879.78162	591.7453	-1315.53772	825.03082	519.86707	-857.27588	1402.93726	811.09589	-774.57031	1212.83594	881.09161	-762.89655	1090.6748	891.62817	-745.02502	970.40839	899.42255	-771.43634	821.89008	865.87494	-736.07806	833.64172	921.61194	-731.56183	752.07428	900.43994	-1118.82288	959.98425	725.33008	-898.79004	969.08734	737.92767	-1096.1615	991.89813	883.82495	-928.78076	990.3349	886.5636	-1175.76526	649.7558	823.13391	-1156.86072	486.96149	849.63983	-1145.83582	237.44978	919.37231	-1097.59802	66.05341	939.60278	-1049.11536	54.31853	977.39374	-1110.12549	32.9549	796.97089	-831.52728	647.026	712.23163	-851.85065	531.22925	661.46167	-863.09161	282.10107	744.90546	-909.56183	104.05033	795.94238	-959.64252	86.75566	834.53607	-893.36322	41.93968	656.5921	-1009.11432	1703.3219	810.27582	NaN	NaN	NaN	NaN	NaN	NaN	NaN	NaN	NaN	NaN	NaN	NaN	NaN	NaN	NaN	NaN	NaN	NaN	NaN	NaN	NaN	NaN	NaN	NaN
6	0.05	-1058.9176	1657.00818	698.51746	-930.06165	1640.75623	713.47363	-1076.60364	1615.28333	836.45587	-947.46777	1604.5282	848.05182	-1023.56891	1451.55066	855.07294	-1020.22125	1122.38	899.08575	-1017.08911	1369.28638	748.3775	-1026.50098	1194.64868	712.67194	-951.52911	1281.65686	937.31665	-1179.2135	1408.93542	791.01764	-1265.83826	1218.81006	746.97852	-1288.70605	1112.16467	713.99902	-1314.8894	990.59698	626.97729	-1267.70972	908.75861	528.59473	-1315.56726	882.91327	574.4834	-1314.6864	830.633	500.819	-858.07214	1401.82422	802.14709	-775.59857	1212.13293	873.49579	-764.13641	1090.05408	884.93762	-746.35492	969.84558	893.90137	-772.47815	820.88611	861.63458	-737.25403	833.41901	917.93335	-732.8819	751.52753	897.07513	-1119.1864	958.51056	716.59912	-899.3385	968.25195	729.88013	-1096.88635	991.07874	875.38171	-929.49335	989.65161	878.37048	-1175.98645	648.85065	816.77679	-1156.94934	486.31284	844.69025	-1145.62292	237.40923	916.82092	-1097.43433	66.26555	939.16364	-1048.92371	54.69641	977.17255	-1110.08801	32.92589	796.86566	-831.78925	646.59753	703.88745	-853.15826	530.65912	652.6214	-862.99969	277.92252	725.40295	-908.47528	96.97528	766.23328	-958.34729	77.63378	803.65137	-892.02875	40.92583	624.13861	-1009.55591	1702.24524	801.51929	NaN	NaN	NaN	NaN	NaN	NaN	NaN	NaN	NaN	NaN	NaN	NaN	NaN	NaN	NaN	NaN	NaN	NaN	NaN	NaN	NaN	NaN	NaN	NaN
7	0.06	-1059.56738	1656.03406	689.88171	-930.59521	1639.49756	704.60773	-1077.02441	1614.2854	827.77386	-947.91895	1603.2998	839.15851	-1024.26404	1450.59131	846.47833	-1020.82184	1121.3866	890.67389	-1017.94556	1368.13196	739.67737	-1027.45752	1193.35486	704.33142	-952.21356	1280.7666	928.63501	-1179.95886	1407.93652	782.45013	-1266.30737	1218.06567	737.43036	-1288.95801	1111.62183	703.38776	-1314.68396	992.1402	613.38269	-1267.67993	914.40149	511.8063	-1314.16711	886.01544	557.65619	-1313.54553	836.29346	482.19778	-858.77637	1400.70496	793.19446	-776.64044	1211.30469	865.48682	-765.29919	1089.33264	878.02997	-747.5434	969.16968	888.10498	-773.49036	819.89948	856.99768	-738.77246	832.84503	913.0434	-734.1571	751.01343	893.61591	-1119.54883	957.19965	708.3064	-899.48096	966.86737	721.71198	-1097.52075	990.11511	866.96796	-930.15118	988.73724	870.09863	-1176.24072	647.84967	810.40546	-1157.02563	485.50809	839.745	-1145.47156	237.34734	914.33496	-1097.22595	66.46736	938.76038	-1048.70862	55.07198	976.94122	-1109.99695	32.87945	796.81458	-831.97162	645.6123	695.92273	-853.62598	530.07678	644.45209	-862.56488	273.84985	705.78308	-907.09436	90.63449	736.29608	-956.98065	69.8298	772.65771	-890.88647	40.19397	591.83984	-1009.91272	1701.1604	792.7229	NaN	NaN	NaN	NaN	NaN	NaN	NaN	NaN	NaN	NaN	NaN	NaN	NaN	NaN	NaN	NaN	NaN	NaN	NaN	NaN	NaN	NaN	NaN	NaN
